<svg data-v-423bf9ae="" xmlns="http://www.w3.org/2000/svg" viewBox="0 0 484.6771079495661 189" class="iconAboveSlogan"><!----><!----><!----><g data-v-423bf9ae="" id="e2b62e88-376e-4c5a-8e37-3691918d991a" fill="white" transform="matrix(4.454343211473998,0,0,4.454343211473998,-2.494433172411078,68.52338551638383)"><path d="M6.20 7.87Q7.10 7.87 7.64 8.37Q8.19 8.88 8.19 9.69L8.19 9.69Q8.19 10.33 7.85 11.02Q7.50 11.70 6.94 12.22Q6.38 12.74 5.77 12.92L5.77 12.92L5.63 12.67Q6.23 12.40 6.60 11.82Q6.97 11.23 6.97 10.57L6.97 10.57Q6.97 9.73 6.47 9.22Q5.96 8.71 5.12 8.71L5.12 8.71Q4.28 8.71 3.54 9.31Q2.80 9.91 2.35 10.91Q1.90 11.91 1.90 13.05L1.90 13.05Q1.90 14.28 2.28 15.22Q2.66 16.16 3.35 16.67Q4.05 17.18 4.94 17.18L4.94 17.18Q5.61 17.18 6.26 16.89Q6.90 16.60 7.43 16.06L7.43 16.06L7.74 16.37Q6.26 18.24 4.23 18.24L4.23 18.24Q3.09 18.24 2.27 17.68Q1.44 17.12 1.00 16.16Q0.56 15.20 0.56 14.03L0.56 14.03Q0.56 12.31 1.32 10.90Q2.09 9.49 3.39 8.68Q4.69 7.87 6.20 7.87L6.20 7.87ZM13.94 8.08Q15.27 8.08 16.12 8.80Q16.97 9.52 16.97 10.96L16.97 10.96Q16.97 11.90 16.46 12.73Q15.95 13.57 15.11 14.18Q14.27 14.78 13.29 15.05L13.29 15.05L14.81 16.91Q15.22 17.29 15.62 17.29L15.62 17.29Q15.96 17.29 16.31 17.04Q16.66 16.79 17.02 16.42L17.02 16.42L17.23 16.60Q17.18 16.67 16.81 17.17Q16.44 17.67 15.95 17.99Q15.47 18.31 15.01 18.31L15.01 18.31Q14.62 18.31 14.26 18.07Q13.90 17.82 13.48 17.29L13.48 17.29L11.80 15.23L11.89 14.85Q12.82 14.76 13.69 14.27Q14.55 13.79 15.08 12.99Q15.61 12.19 15.61 11.23L15.61 11.23Q15.61 10.18 14.97 9.55Q14.34 8.92 13.09 8.92L13.09 8.92Q12.12 8.92 11.05 9.37Q9.98 9.83 9.18 10.56L9.18 10.56L8.92 10.26Q9.94 9.31 11.30 8.69Q12.67 8.08 13.94 8.08L13.94 8.08ZM11.06 10.11L11.06 17.78L9.77 18.30L9.77 10.60L11.06 10.11ZM23.74 15.57Q23.41 16.67 22.71 17.38Q22.01 18.09 20.89 18.09L20.89 18.09Q20.06 18.09 19.63 17.51Q19.19 16.93 19.19 16.06L19.19 16.06L19.19 9.80Q19.19 9.44 19.04 9.20Q18.89 8.96 18.55 8.96L18.55 8.96Q18.34 8.96 18.10 9.10Q17.85 9.24 17.72 9.42L17.72 9.42L17.53 9.25Q17.71 8.85 18.12 8.54Q18.54 8.23 18.94 8.23L18.94 8.23Q19.67 8.23 20.08 8.75Q20.50 9.27 20.50 9.94L20.50 9.94L20.50 15.51Q20.50 16.28 20.68 16.81Q20.86 17.33 21.48 17.33L21.48 17.33Q22.27 17.33 22.79 16.54Q23.31 15.75 23.55 14.70Q23.79 13.65 23.79 12.87L23.79 12.87L23.79 8.58L25.07 8.11L25.07 17.72Q25.07 18.66 24.68 19.46Q24.29 20.26 23.56 20.73Q22.82 21.21 21.85 21.21L21.85 21.21Q20.62 21.21 19.74 20.44L19.74 20.44L20.87 19.49Q21.08 19.89 21.50 20.24Q21.92 20.58 22.40 20.58L22.40 20.58Q22.89 20.58 23.21 20.31Q23.52 20.05 23.65 19.67Q23.79 19.29 23.79 18.97L23.79 18.97L23.79 15.57L23.74 15.57ZM31.72 8.08Q33.05 8.08 33.90 8.80Q34.75 9.52 34.75 10.96L34.75 10.96Q34.75 12.11 33.98 13.10Q33.21 14.08 32.01 14.67Q30.81 15.26 29.61 15.26L29.61 15.26Q29.48 15.26 29.46 15.23L29.46 15.23L29.53 14.85Q30.46 14.76 31.36 14.27Q32.26 13.78 32.82 12.99Q33.39 12.19 33.39 11.23L33.39 11.23Q33.39 10.18 32.75 9.55Q32.12 8.92 30.87 8.92L30.87 8.92Q29.90 8.92 28.83 9.37Q27.76 9.83 26.96 10.56L26.96 10.56L26.70 10.26Q27.72 9.31 29.09 8.69Q30.45 8.08 31.72 8.08L31.72 8.08ZM28.88 10.11L28.88 17.78L27.59 18.27L27.59 10.61L28.88 10.11ZM42.28 7.74L42.43 7.90Q41.89 8.61 41.08 9.07Q40.26 9.52 39.40 9.52L39.40 9.52Q39.12 9.87 38.99 10.18Q38.86 10.49 38.86 10.91L38.86 10.91L38.86 15.47Q38.86 16.56 38.53 17.19Q38.19 17.81 37.45 18.38L37.45 18.38L37.16 18.10Q37.37 17.86 37.47 17.49Q37.58 17.11 37.58 16.73L37.58 16.73L37.58 11.72Q37.58 11.09 37.91 10.51Q38.25 9.94 38.77 9.52L38.77 9.52L36.83 9.51Q36.30 9.51 35.92 9.70Q35.55 9.88 35.18 10.29L35.18 10.29L34.92 10.08Q35.62 9.23 36.39 8.76Q37.17 8.30 37.98 8.30L37.98 8.30L39.14 8.30Q40.15 8.30 41.02 8.20Q41.89 8.09 42.28 7.74L42.28 7.74ZM46.59 7.97Q47.92 7.97 48.94 8.71Q49.95 9.45 50.51 10.65Q51.06 11.86 51.06 13.17L51.06 13.17Q51.06 14.48 50.56 15.66Q50.06 16.84 49.06 17.58Q48.05 18.33 46.59 18.33L46.59 18.33Q45.25 18.33 44.21 17.58Q43.18 16.84 42.62 15.65Q42.07 14.46 42.07 13.17L42.07 13.17Q42.07 11.84 42.57 10.65Q43.06 9.46 44.09 8.72Q45.11 7.97 46.59 7.97L46.59 7.97ZM45.95 8.74Q45.05 8.74 44.46 9.26Q43.88 9.79 43.61 10.58Q43.34 11.37 43.34 12.15L43.34 12.15Q43.34 13.37 43.74 14.60Q44.14 15.82 45.00 16.65Q45.86 17.49 47.17 17.49L47.17 17.49Q48.06 17.49 48.64 16.95Q49.22 16.42 49.49 15.64Q49.76 14.85 49.76 14.06L49.76 14.06Q49.76 12.87 49.36 11.63Q48.97 10.40 48.11 9.57Q47.25 8.74 45.95 8.74L45.95 8.74ZM55.96 8.37L57.26 7.87L57.26 11.52Q57.55 10.36 58.07 9.54Q58.59 8.72 59.19 8.31Q59.79 7.90 60.31 7.90L60.31 7.90Q60.84 7.90 61.11 8.26Q61.38 8.62 61.38 9.23L61.38 9.23L61.38 11.51Q61.67 10.35 62.19 9.53Q62.71 8.72 63.30 8.31Q63.90 7.90 64.43 7.90L64.43 7.90Q64.96 7.90 65.23 8.25Q65.49 8.61 65.49 9.23L65.49 9.23L65.49 16.59Q65.49 16.98 65.66 17.22Q65.83 17.46 66.12 17.46L66.12 17.46Q66.35 17.46 66.58 17.31Q66.81 17.16 66.96 16.95L66.96 16.95L67.16 17.14Q66.96 17.57 66.56 17.86Q66.16 18.16 65.62 18.16L65.62 18.16Q64.99 18.16 64.60 17.72Q64.20 17.28 64.20 16.44L64.20 16.44L64.20 9.59Q64.20 9.27 64.08 9.09Q63.95 8.92 63.74 8.92L63.74 8.92Q63.31 8.92 62.74 9.59Q62.17 10.26 61.77 11.44Q61.36 12.61 61.36 14.06L61.36 14.06L61.36 17.82L60.07 18.28L60.07 9.59Q60.07 9.27 59.96 9.09Q59.85 8.92 59.65 8.92L59.65 8.92Q59.22 8.92 58.65 9.59Q58.07 10.26 57.67 11.44Q57.26 12.61 57.26 14.06L57.26 14.06L57.26 17.82L55.96 18.28L55.96 8.37ZM74.38 8.12L74.38 8.53Q72.83 8.74 71.58 9.60Q70.34 10.46 69.63 11.77Q68.92 13.08 68.92 14.60L68.92 14.60Q68.92 15.88 69.41 16.62Q69.90 17.36 70.70 17.36L70.70 17.36Q71.48 17.36 72.21 16.28Q72.93 15.19 73.37 13.43Q73.81 11.68 73.81 9.77L73.81 9.77L75.12 9.25L75.12 16.59Q75.12 16.98 75.29 17.22Q75.46 17.46 75.75 17.46L75.75 17.46Q75.98 17.46 76.22 17.31Q76.45 17.16 76.58 16.95L76.58 16.95L76.78 17.14Q76.58 17.57 76.17 17.86Q75.77 18.16 75.25 18.16L75.25 18.16Q74.61 18.16 74.21 17.71Q73.81 17.26 73.81 16.44L73.81 16.44L73.81 13.76L73.74 13.76Q72.73 18.24 70.32 18.24L70.32 18.24Q69.08 18.24 68.32 17.37Q67.56 16.49 67.56 14.97L67.56 14.97Q67.56 13.22 68.49 11.68Q69.41 10.14 70.98 9.17Q72.55 8.20 74.38 8.12L74.38 8.12ZM82.12 8.08Q83.45 8.08 84.30 8.80Q85.15 9.52 85.15 10.96L85.15 10.96Q85.15 11.90 84.64 12.73Q84.13 13.57 83.29 14.18Q82.45 14.78 81.47 15.05L81.47 15.05L82.99 16.91Q83.40 17.29 83.80 17.29L83.80 17.29Q84.14 17.29 84.49 17.04Q84.84 16.79 85.20 16.42L85.20 16.42L85.41 16.60Q85.36 16.67 84.99 17.17Q84.62 17.67 84.13 17.99Q83.65 18.31 83.19 18.31L83.19 18.31Q82.80 18.31 82.44 18.07Q82.08 17.82 81.66 17.29L81.66 17.29L79.98 15.23L80.07 14.85Q81.00 14.76 81.87 14.27Q82.73 13.79 83.26 12.99Q83.79 12.19 83.79 11.23L83.79 11.23Q83.79 10.18 83.15 9.55Q82.52 8.92 81.27 8.92L81.27 8.92Q80.30 8.92 79.23 9.37Q78.16 9.83 77.36 10.56L77.36 10.56L77.10 10.26Q78.12 9.31 79.49 8.69Q80.85 8.08 82.12 8.08L82.12 8.08ZM79.24 10.11L79.24 17.78L77.95 18.30L77.95 10.60L79.24 10.11ZM94.14 16.24L94.37 16.41Q93.97 17.25 93.39 17.72Q92.82 18.20 92.22 18.20L92.22 18.20Q91.71 18.20 91.39 18.01Q91.07 17.82 90.82 17.46Q90.57 17.11 90.08 16.27L90.08 16.27L88.82 14.14L88.24 14.83L88.24 17.81L86.94 18.28L86.94 8.37L88.24 7.87L88.24 13.80L93.04 8.12L93.90 8.19L89.67 13.13L91.66 16.46Q91.94 16.97 92.16 17.14Q92.39 17.32 92.74 17.30L92.74 17.30Q93.09 17.30 93.47 17.00Q93.86 16.70 94.14 16.24L94.14 16.24ZM99.40 8.05Q100.44 8.05 101.18 8.90L101.18 8.90L100.32 9.60Q99.93 9.18 99.53 8.94Q99.13 8.69 98.63 8.69L98.63 8.69Q98.17 8.69 97.73 8.89Q97.30 9.09 97.03 9.44Q96.75 9.80 96.75 10.25L96.75 10.25Q96.75 10.70 97.03 11.07Q97.31 11.45 97.76 11.67Q98.20 11.89 98.67 11.89L98.67 11.89Q98.85 11.89 99.03 11.87Q99.20 11.86 99.32 11.79L99.32 11.79L99.44 12.18Q98.22 12.54 97.26 13.34Q96.29 14.13 96.29 15.25L96.29 15.25Q96.29 16.09 96.78 16.63Q97.27 17.16 98.13 17.16L98.13 17.16Q98.83 17.16 99.51 16.89Q100.18 16.62 100.70 16.18Q101.22 15.75 101.50 15.29L101.50 15.29L101.82 15.57Q101.14 16.72 99.99 17.48Q98.84 18.24 97.51 18.24L97.51 18.24Q96.73 18.24 96.10 17.93Q95.48 17.61 95.12 17.05Q94.77 16.48 94.77 15.74L94.77 15.74Q94.77 14.73 95.54 13.91Q96.31 13.09 97.41 12.60L97.41 12.60Q96.71 12.43 96.29 11.94Q95.87 11.44 95.87 10.78L95.87 10.78Q95.87 9.90 96.43 9.28Q96.98 8.67 97.80 8.36Q98.62 8.05 99.40 8.05L99.40 8.05ZM109.21 7.74L109.37 7.90Q108.82 8.61 108.01 9.07Q107.20 9.52 106.33 9.52L106.33 9.52Q106.05 9.87 105.92 10.18Q105.80 10.49 105.80 10.91L105.80 10.91L105.80 15.47Q105.80 16.56 105.46 17.19Q105.13 17.81 104.38 18.38L104.38 18.38L104.09 18.10Q104.30 17.86 104.41 17.49Q104.51 17.11 104.51 16.73L104.51 16.73L104.51 11.72Q104.51 11.09 104.85 10.51Q105.18 9.94 105.70 9.52L105.70 9.52L103.77 9.51Q103.24 9.51 102.86 9.70Q102.48 9.88 102.12 10.29L102.12 10.29L101.85 10.08Q102.55 9.23 103.33 8.76Q104.10 8.30 104.92 8.30L104.92 8.30L106.08 8.30Q107.09 8.30 107.95 8.20Q108.82 8.09 109.21 7.74L109.21 7.74Z"></path></g><!----><g data-v-423bf9ae="" id="d6906a95-01b0-4e65-ab34-0235c52f0444" transform="matrix(1.1480174780398038,0,0,1.1480174780398038,185.18512435084511,-6.95692977142226)" stroke="none" fill="white"><path d="M50 38.374c4.776 0 8.662-3.886 8.662-8.662S54.776 21.05 50 21.05s-8.662 3.886-8.662 8.662 3.886 8.662 8.662 8.662zm0-16.324c4.225 0 7.662 3.437 7.662 7.662S54.225 37.374 50 37.374s-7.662-3.437-7.662-7.662S45.775 22.05 50 22.05zM19.558 47.639v27.806h-5.11l-1.27 9.416h73.018l-1.27-9.416h-4.484V47.64h-9.79v27.806h-7.241V47.64h-9.79v27.806h-7.242V47.64h-9.79v27.806h-7.241V47.64h-9.79zm2 2h5.79v25.806h-5.79V49.64zm51.094 0h5.79v25.806h-5.79V49.64zm-17.031 0h5.79v25.806h-5.79V49.64zm-17.032 0h5.79v25.806h-5.79V49.64zm-2 27.806h46.589l.73 5.416H15.467l.73-5.416h20.392z"></path><path d="M16.456 45.639h66.487l1-5.409h6.471l-16.93-13.874h6.041v-4.734h4.371v-2h-6.37v4.734h-6.482l-4.785-3.921h5.774v-7.539h2.098a5.396 5.396 0 001.493 2.841 5.396 5.396 0 003.84 1.591c1.451 0 2.815-.565 3.84-1.59a5.437 5.437 0 000-7.682 5.395 5.395 0 00-3.84-1.591 5.396 5.396 0 00-3.84 1.59c-.804.804-1.3 1.8-1.493 2.841h-4.098v7.539h-6.215L50 7.11 36.182 18.435h-6.215v-7.539h-4.098a5.396 5.396 0 00-1.493-2.84 5.395 5.395 0 00-3.84-1.591 5.396 5.396 0 00-3.84 1.59 5.437 5.437 0 000 7.682 5.396 5.396 0 003.84 1.591c1.45 0 2.815-.565 3.84-1.59.804-.805 1.3-1.8 1.493-2.842h2.098v7.539h5.774l-4.785 3.921h-6.481v-4.734h-6.371v2h4.37v4.734h6.042L9.586 40.23h5.87l1 5.409zm60.582-36.17a3.41 3.41 0 012.426-1.004c.917 0 1.779.357 2.427 1.005a3.436 3.436 0 010 4.853c-1.297 1.297-3.558 1.296-4.853 0-.649-.648-1.006-1.51-1.006-2.427s.357-1.778 1.006-2.426zm-54.076 4.854c-1.296 1.297-3.557 1.296-4.853 0a3.436 3.436 0 010-4.853 3.41 3.41 0 012.427-1.005c.917 0 1.778.357 2.426 1.005.649.648 1.006 1.51 1.006 2.426s-.357 1.779-1.006 2.427zM81.28 43.64H18.12l-.63-3.409h26.314c.018.01.038.018.057.028 1.806 1.056 3.9 1.672 6.139 1.672s4.333-.616 6.14-1.672c.018-.01.038-.017.056-.028H81.91l-.63 3.409zm-39.366-7.706c-.09-.115-.178-.231-.263-.35a10.09 10.09 0 01-.415-.646c-.068-.114-.142-.223-.206-.339a10.097 10.097 0 01-.468-.98c-.054-.132-.097-.268-.147-.401a10.092 10.092 0 01-.235-.715 10.165 10.165 0 01-.262-1.214c-.02-.127-.044-.253-.059-.382a10.307 10.307 0 01-.076-1.194c0-5.634 4.584-10.218 10.218-10.218s10.218 4.584 10.218 10.218c0 .403-.03.8-.076 1.194-.015.13-.039.256-.059.383a10.184 10.184 0 01-.263 1.214c-.068.241-.148.477-.234.712-.05.134-.093.271-.148.403-.138.335-.293.662-.467.98-.064.117-.14.227-.208.342-.13.218-.266.434-.413.642-.084.12-.174.236-.264.352-.167.216-.342.426-.527.629-.071.078-.14.16-.214.236a10.377 10.377 0 01-1.926 1.56l-.071.043c-3.235 1.995-7.461 1.995-10.696 0l-.07-.043a10.374 10.374 0 01-1.927-1.56c-.074-.077-.142-.157-.213-.235a10.183 10.183 0 01-.53-.63zm19.312-1.404c.01-.026.024-.05.035-.076.135-.32.252-.649.36-.981.016-.05.036-.098.052-.148.095-.307.17-.62.241-.935.018-.081.043-.159.06-.24.06-.302.102-.61.14-.918.012-.097.033-.191.042-.289.041-.406.063-.816.063-1.23 0-1.457-.27-2.849-.74-4.146l10.725 9.055H61.182c.013-.031.03-.061.043-.092zm-23.38-3.587c.01.098.03.192.042.29.038.307.08.615.14.917.017.081.042.159.06.24.07.315.146.628.24.935.017.05.037.098.054.149.107.332.224.66.359.98l.038.08c.012.03.027.058.04.088h-11.02l10.724-9.055a12.132 12.132 0 00-.677 5.376zm9.999-13.246L50 15.876l2.156 1.82c-.701-.125-1.42-.202-2.156-.202s-1.455.077-2.156.202zm2.156-8L84.818 38.23H58.752c.157-.16.298-.333.446-.501.083-.096.172-.186.252-.284.214-.26.411-.529.601-.803.028-.04.06-.079.087-.12.197-.292.378-.593.55-.901h14.249L60.419 23.364a12.271 12.271 0 00-5.925-5.002L50 14.567l-4.494 3.795a12.271 12.271 0 00-5.925 5.002L25.063 35.62h14.25c.17.307.35.608.548.9.031.046.066.089.098.135.187.268.38.533.589.786.087.106.182.204.272.306.142.162.278.328.429.482H15.182L50 9.696z"></path><path d="M46.48 33.596c.413.845.967 1.235 1.935 1.235h.962v1.651h1.332v-1.651H51.67c.968 0 1.523-.39 1.936-1.235l.825-1.679h-1.439l-.509 1.043c-.243.502-.376.565-.877.57v-.002H48.479v.002c-.5-.005-.633-.068-.877-.57l-1.097-2.248c-.155-.313-.27-.533-.27-.897 0-.403.102-.637.27-.988l1.123-2.261c.239-.481.334-.543.852-.545v.003h3.126v-.003c.517.002.613.064.851.545l.468.941h1.428l-.76-1.539c-.439-.897-.993-1.247-1.987-1.247h-.897v-1.78h-1.333v1.78h-.897c-.993 0-1.548.35-1.987 1.247l-1.187 2.404c-.258.52-.361.87-.361 1.443 0 .506.129.922.348 1.364l1.188 2.417z"></path></g><!----><g data-v-423bf9ae="" id="ef1b0d55-5f77-4d1d-84da-d727336ccdc8" fill="white" transform="matrix(1.3352968337148399,0,0,1.3352968337148399,61.11867171370727,198.0323930646228)"><path d="M0.39 12.41L0.38 11.87L0.55 11.87Q0.94 11.87 1.07 11.73L1.07 11.73Q1.19 11.57 1.52 10.83L1.52 10.83L2.43 8.82L3.01 7.53Q3.27 6.97 3.32 6.86L3.32 6.86Q3.38 6.70 3.44 6.60Q3.49 6.51 3.50 6.45L3.50 6.45L3.60 6.21L5.02 2.74L5.32 2.74Q6.17 4.98 8.36 10.25L8.36 10.25Q8.81 11.34 9.00 11.64L9.00 11.64Q9.14 11.87 9.58 11.87L9.58 11.87L9.79 11.87L9.78 12.41L6.58 12.41L6.60 11.87L7.01 11.87Q7.63 11.87 7.63 11.70L7.63 11.70Q7.63 11.63 7.49 11.27L7.49 11.27L6.45 8.72L3.21 8.72L2.10 11.18Q1.96 11.50 1.96 11.63L1.96 11.63Q1.96 11.79 2.06 11.83Q2.15 11.87 2.54 11.87L2.54 11.87L3.11 11.87L3.11 12.41L0.39 12.41ZM4.89 4.79L3.47 8.10L6.21 8.10L4.89 4.79ZM27.10 3.64L27.09 3.08L29.26 3.08L35 10.48L35 4.14Q35 3.81 34.85 3.72Q34.69 3.64 34.23 3.64L34.23 3.64L33.74 3.64L33.77 3.08L36.75 3.08L36.75 3.64L36.43 3.64Q35.96 3.64 35.81 3.75Q35.66 3.86 35.66 4.25L35.66 4.25L35.66 12.32L35.66 12.47Q35.66 12.52 35.65 12.57Q35.64 12.61 35.60 12.64L35.60 12.64Q35.59 12.65 35.53 12.65L35.53 12.65L35.34 12.65L35.28 12.65L35.25 12.65L35.23 12.64Q35.20 12.64 35.18 12.63Q35.17 12.61 35.17 12.60Q35.17 12.58 35.16 12.57L35.16 12.57Q35.13 12.54 35.10 12.50L35.10 12.50Q35.09 12.48 35.07 12.45Q35.05 12.41 35.03 12.40L35.03 12.40L28.93 4.56L29.00 11.22Q29.00 11.67 29.16 11.77L29.16 11.77Q29.32 11.87 30.03 11.87L30.03 11.87L30.27 11.87L30.27 12.41L27.33 12.41L27.33 11.87L27.75 11.87Q28.13 11.87 28.24 11.76L28.24 11.76Q28.33 11.66 28.34 11.25L28.34 11.25L28.34 3.80L28.20 3.64L27.10 3.64ZM44.50 3.64L44.49 3.08L51.67 3.08Q51.69 4.14 51.74 5.28L51.74 5.28L51.19 5.30Q51.18 4.66 51.13 4.25L51.13 4.25Q51.08 3.89 51.03 3.80L51.03 3.80Q50.98 3.71 50.86 3.69L50.86 3.69Q50.76 3.68 50.18 3.68L50.18 3.68L47.80 3.68Q47.25 3.68 47.11 3.77L47.11 3.77Q46.98 3.86 46.98 4.33L46.98 4.33L46.98 6.28Q46.98 6.69 47.04 6.76L47.04 6.76Q47.11 6.84 47.44 6.84L47.44 6.84L49.56 6.84Q49.92 6.84 50.00 6.74Q50.09 6.64 50.09 6.17L50.09 6.17L50.09 5.63L50.61 5.63L50.61 8.97L50.09 8.97L50.09 8.26Q50.09 7.68 50.00 7.57Q49.92 7.46 49.59 7.46L49.59 7.46L47.49 7.46Q47.15 7.46 47.07 7.54Q46.98 7.63 46.98 7.89L46.98 7.89L46.98 11.20Q46.98 11.60 47.05 11.73L47.05 11.73Q47.13 11.87 47.40 11.87L47.40 11.87L48.34 11.87L48.34 12.41L44.74 12.41L44.74 11.87L45.15 11.87Q45.66 11.87 45.75 11.79Q45.85 11.70 45.85 11.33L45.85 11.33L45.85 4.24Q45.85 3.79 45.68 3.71L45.68 3.71Q45.54 3.64 44.50 3.64L44.50 3.64ZM60.07 5.35L59.57 5.33Q59.69 4.17 59.77 3.08L59.77 3.08L67.85 3.08Q67.77 4.13 67.74 4.53L67.74 4.53Q67.70 5.26 67.68 5.32L67.68 5.32L67.18 5.30Q67.27 4.34 67.27 4.16L67.27 4.16Q67.27 3.88 67.12 3.79L67.12 3.79Q66.95 3.69 66.55 3.69L66.55 3.69L64.94 3.69Q64.44 3.69 64.31 3.79L64.31 3.79Q64.22 3.87 64.21 4.36L64.21 4.36L64.21 11.22Q64.21 11.66 64.35 11.76L64.35 11.76Q64.51 11.87 65.02 11.87L65.02 11.87L65.58 11.87L65.60 12.41L61.91 12.40L61.91 11.87L62.13 11.87Q62.79 11.87 62.94 11.79Q63.08 11.70 63.08 11.28L63.08 11.28L63.08 4.48Q63.08 3.92 62.98 3.80Q62.88 3.69 62.46 3.69L62.46 3.69L60.99 3.69Q60.81 3.69 60.74 3.71Q60.67 3.72 60.56 3.72L60.56 3.72Q60.53 3.72 60.42 3.79L60.42 3.79Q60.33 3.84 60.31 3.86Q60.28 3.88 60.24 3.99L60.24 3.99Q60.21 4.05 60.18 4.14L60.18 4.14Q60.16 4.21 60.14 4.36L60.14 4.36Q60.11 4.59 60.11 4.61L60.11 4.61Q60.11 4.80 60.09 4.95L60.09 4.95Q60.09 5.02 60.09 5.15Q60.08 5.29 60.07 5.35L60.07 5.35ZM75.56 10.04L75.56 10.04L76.06 9.98L76.24 10.85Q76.35 11.33 76.42 11.41Q76.49 11.49 76.90 11.64L76.90 11.64Q77.74 11.95 78.63 11.95L78.63 11.95Q79.42 11.95 79.96 11.49L79.96 11.49Q80.49 11.04 80.49 10.26L80.49 10.26Q80.49 9.65 80.04 9.21L80.04 9.21Q79.56 8.76 78.70 8.30L78.70 8.30L78.13 7.98Q77.38 7.55 77.15 7.36L77.15 7.36Q76.79 7.08 76.48 6.59Q76.17 6.10 76.17 5.46L76.17 5.46Q76.17 4.39 77.01 3.68Q77.85 2.97 78.96 2.97L78.96 2.97Q79.24 2.97 79.58 3.04L79.58 3.04Q79.78 3.08 80.12 3.17L80.12 3.17L80.36 3.25Q80.45 3.25 80.49 3.16L80.49 3.16Q80.55 3.05 80.55 2.98L80.55 2.98L80.56 2.88L81.04 2.85L81.25 5.41L80.75 5.43L80.62 4.18Q79.88 3.62 78.72 3.62L78.72 3.62Q78.07 3.62 77.57 4.05L77.57 4.05Q77.09 4.47 77.09 5.12L77.09 5.12Q77.09 5.72 77.54 6.17L77.54 6.17Q77.97 6.60 78.84 7.08L78.84 7.08L79.61 7.50Q80.56 8.03 81.09 8.59Q81.63 9.15 81.63 9.92L81.63 9.92Q81.63 10.99 80.77 11.76L80.77 11.76Q79.91 12.54 78.45 12.54L78.45 12.54Q77.89 12.54 77.39 12.41Q76.88 12.29 76.83 12.29L76.83 12.29Q76.58 12.29 76.58 12.58L76.58 12.58L76.59 12.76L76.11 12.80Q76.05 12.41 75.56 10.04ZM102.55 12.41L99.52 12.41L99.52 11.87L99.66 11.87Q100.25 11.87 100.37 11.77L100.37 11.77Q100.49 11.68 100.50 11.21L100.50 11.21L100.63 4.38Q100.63 4.35 100.64 4.28Q100.65 4.21 100.65 4.17L100.65 4.17L100.65 4.01Q100.65 3.76 100.57 3.71L100.57 3.71Q100.47 3.64 100.25 3.64L100.25 3.64L99.54 3.64L99.52 3.08L101.64 3.08L104.83 10.55L107.97 3.08L110.20 3.08L110.20 3.64L109.73 3.64Q109.28 3.64 109.16 3.71L109.16 3.71Q109.00 3.79 109.00 4.08L109.00 4.08L109.00 11.22Q109.00 11.68 109.11 11.77Q109.22 11.87 109.85 11.87L109.85 11.87L110.13 11.87L110.15 12.41L106.75 12.41L106.73 11.87L107.01 11.87Q107.63 11.87 107.74 11.77L107.74 11.77Q107.86 11.66 107.86 11.25L107.86 11.25L107.86 4.83L105.71 9.91L104.86 12.02Q104.72 12.37 104.68 12.44Q104.63 12.51 104.56 12.51L104.56 12.51Q104.47 12.51 104.02 11.52L104.02 11.52L101.21 5.01L101.14 11.39Q101.14 11.74 101.34 11.80L101.34 11.80Q101.58 11.87 102.55 11.87L102.55 11.87L102.55 12.41ZM117.89 12.41L117.87 11.87L118.04 11.87Q118.43 11.87 118.56 11.73L118.56 11.73Q118.69 11.57 119.02 10.83L119.02 10.83L119.93 8.82L120.50 7.53Q120.77 6.97 120.81 6.86L120.81 6.86Q120.88 6.70 120.93 6.60Q120.98 6.51 121.00 6.45L121.00 6.45L121.09 6.21L122.52 2.74L122.81 2.74Q123.67 4.98 125.86 10.25L125.86 10.25Q126.31 11.34 126.50 11.64L126.50 11.64Q126.64 11.87 127.07 11.87L127.07 11.87L127.29 11.87L127.27 12.41L124.08 12.41L124.09 11.87L124.51 11.87Q125.13 11.87 125.13 11.70L125.13 11.70Q125.13 11.63 124.99 11.27L124.99 11.27L123.95 8.72L120.70 8.72L119.59 11.18Q119.46 11.50 119.46 11.63L119.46 11.63Q119.46 11.79 119.55 11.83Q119.65 11.87 120.03 11.87L120.03 11.87L120.61 11.87L120.61 12.41L117.89 12.41ZM122.38 4.79L120.97 8.10L123.71 8.10L122.38 4.79ZM135.35 3.64L134.96 3.64L134.98 3.08L138.20 3.08Q139.33 3.08 139.93 3.21L139.93 3.21Q140.57 3.37 141.04 3.75L141.04 3.75Q142.04 4.57 142.04 5.71L142.04 5.71Q142.04 6.43 141.57 7.04L141.57 7.04Q141.08 7.66 140.05 7.92L140.05 7.92L142.73 11.49Q143.04 11.87 143.34 11.87L143.34 11.87L143.94 11.87L143.96 12.41L141.93 12.41L138.94 8.10L138.77 8.10Q138.73 8.10 138.67 8.11Q138.62 8.11 138.61 8.11L138.61 8.11Q137.72 8.11 137.33 8.03L137.33 8.03L137.33 11.46Q137.33 11.76 137.47 11.81L137.47 11.81Q137.59 11.87 138.30 11.87L138.30 11.87L139.01 11.87L138.98 12.41L135.26 12.41L135.26 11.87L135.58 11.87Q136.04 11.87 136.11 11.81L136.11 11.81Q136.19 11.74 136.19 11.46L136.19 11.46L136.19 4.14Q136.19 3.82 136.00 3.73L136.00 3.73Q135.78 3.64 135.35 3.64L135.35 3.64ZM137.33 4.28L137.33 7.57Q137.51 7.70 138.22 7.71L138.22 7.71Q139.49 7.71 140.08 7.27L140.08 7.27Q140.66 6.84 140.66 5.92L140.66 5.92Q140.66 4.92 139.89 4.27L139.89 4.27Q139.13 3.64 137.75 3.64L137.75 3.64Q137.50 3.64 137.42 3.75L137.42 3.75Q137.33 3.84 137.33 4.28L137.33 4.28ZM152.30 3.64L151.72 3.64L151.72 3.08L155.22 3.08L155.22 3.64L154.77 3.64Q154.37 3.64 154.27 3.73L154.27 3.73Q154.16 3.84 154.16 4.28L154.16 4.28L154.16 7.50L158.25 4.18Q158.59 3.89 158.59 3.77L158.59 3.77Q158.59 3.64 157.95 3.64L157.95 3.64L157.40 3.64L157.38 3.08L160.73 3.08L160.73 3.64L160.37 3.64Q159.94 3.64 159.73 3.76L159.73 3.76Q159.56 3.86 158.68 4.55L158.68 4.55L155.51 7.08L159.74 11.49Q160.10 11.87 160.34 11.87L160.34 11.87L161.16 11.87L161.13 12.41L158.93 12.41L154.67 7.74L154.16 8.16L154.16 11.22Q154.16 11.70 154.32 11.79Q154.49 11.87 155.26 11.87L155.26 11.87L155.57 11.87L155.57 12.41L151.98 12.41L151.97 11.87L152.35 11.87Q152.85 11.87 152.94 11.79Q153.02 11.70 153.02 11.25L153.02 11.25L153.02 4.14Q153.02 3.77 152.92 3.71L152.92 3.71Q152.81 3.64 152.30 3.64L152.30 3.64ZM168.90 3.64L168.89 3.08L176.10 3.08Q176.11 4.14 176.17 5.28L176.17 5.28L175.62 5.30Q175.61 4.66 175.55 4.25L175.55 4.25Q175.51 3.89 175.46 3.80L175.46 3.80Q175.40 3.71 175.29 3.69L175.29 3.69Q175.19 3.68 174.60 3.68L174.60 3.68L172.22 3.68Q171.68 3.68 171.53 3.77L171.53 3.77Q171.41 3.86 171.41 4.33L171.41 4.33L171.41 6.28Q171.41 6.69 171.47 6.76L171.47 6.76Q171.53 6.84 171.88 6.84L171.88 6.84L173.99 6.84Q174.35 6.84 174.43 6.73L174.43 6.73Q174.51 6.63 174.52 6.14L174.52 6.14L174.52 5.61L175.03 5.63L175.03 8.97L174.52 8.97L174.52 8.24Q174.52 7.66 174.45 7.57L174.45 7.57Q174.36 7.46 174.02 7.46L174.02 7.46L171.92 7.46Q171.58 7.46 171.50 7.54Q171.41 7.63 171.41 7.89L171.41 7.89L171.41 11.20Q171.41 11.57 171.50 11.67Q171.58 11.77 171.86 11.77L171.86 11.77Q174.77 11.75 175.30 11.69L175.30 11.69Q175.82 11.63 175.90 11.38L175.90 11.38L175.91 11.36L175.92 11.35L176.14 10.17L176.62 10.25L176.27 12.41L169.17 12.41L169.17 11.87L169.54 11.87Q170.10 11.87 170.18 11.80L170.18 11.80Q170.28 11.72 170.28 11.33L170.28 11.33L170.28 4.24Q170.28 3.82 170.13 3.73L170.13 3.73Q169.96 3.64 169.30 3.64L169.30 3.64L168.90 3.64ZM184.78 5.35L184.28 5.33Q184.40 4.17 184.48 3.08L184.48 3.08L192.56 3.08Q192.48 4.13 192.45 4.53L192.45 4.53Q192.41 5.26 192.39 5.32L192.39 5.32L191.89 5.30Q191.97 4.34 191.97 4.16L191.97 4.16Q191.97 3.88 191.83 3.79L191.83 3.79Q191.66 3.69 191.26 3.69L191.26 3.69L189.65 3.69Q189.14 3.69 189.02 3.79L189.02 3.79Q188.92 3.87 188.92 4.36L188.92 4.36L188.92 11.22Q188.92 11.66 189.06 11.76L189.06 11.76Q189.22 11.87 189.73 11.87L189.73 11.87L190.29 11.87L190.31 12.41L186.61 12.40L186.61 11.87L186.83 11.87Q187.50 11.87 187.65 11.79Q187.79 11.70 187.79 11.28L187.79 11.28L187.79 4.48Q187.79 3.92 187.69 3.80Q187.59 3.69 187.17 3.69L187.17 3.69L185.70 3.69Q185.51 3.69 185.45 3.71Q185.38 3.72 185.27 3.72L185.27 3.72Q185.24 3.72 185.12 3.79L185.12 3.79Q185.04 3.84 185.01 3.86Q184.99 3.88 184.95 3.99L184.95 3.99Q184.92 4.05 184.89 4.14L184.89 4.14Q184.86 4.21 184.84 4.36L184.84 4.36Q184.82 4.59 184.82 4.61L184.82 4.61Q184.82 4.80 184.80 4.95L184.80 4.95Q184.80 5.02 184.80 5.15Q184.79 5.29 184.78 5.35L184.78 5.35ZM204.03 12.41L200.30 12.41L200.30 11.87L200.74 11.87Q201.11 11.87 201.17 11.81L201.17 11.81Q201.24 11.74 201.24 11.46L201.24 11.46L201.24 4.14Q201.24 3.81 201.16 3.72Q201.07 3.64 200.71 3.64L200.71 3.64L200.34 3.64L200.35 3.08L203.24 3.08Q204.39 3.08 205.04 3.19L205.04 3.19Q205.64 3.28 206.11 3.68L206.11 3.68Q207.30 4.64 207.30 6.19L207.30 6.19Q207.30 7.23 206.53 7.98L206.53 7.98Q205.75 8.74 204.35 8.73L204.35 8.73Q204.18 8.73 203.76 8.70L203.76 8.70Q203.65 8.69 203.23 8.62L203.23 8.62Q202.89 8.55 202.79 8.54L202.79 8.54Q202.50 8.47 202.49 8.46L202.49 8.46L202.37 8.44L202.37 11.46Q202.37 11.74 202.50 11.81L202.50 11.81Q202.61 11.87 203.33 11.87L203.33 11.87L204.03 11.87L204.03 12.41ZM202.37 4.28L202.37 8.02Q202.72 8.29 203.69 8.29L203.69 8.29Q204.83 8.29 205.40 7.75L205.40 7.75Q205.99 7.21 205.99 6.16L205.99 6.16Q205.99 4.98 205.08 4.31L205.08 4.31Q204.18 3.64 202.79 3.64L202.79 3.64Q202.54 3.64 202.46 3.75L202.46 3.75Q202.38 3.84 202.37 4.28L202.37 4.28ZM215.77 3.64L215.28 3.64L215.29 3.08L218.88 3.08L218.88 3.64L218.24 3.64Q217.87 3.64 217.76 3.72Q217.64 3.80 217.64 4.16L217.64 4.16L217.64 11.22Q217.64 11.57 217.73 11.67Q217.81 11.77 218.11 11.77L218.11 11.77Q220.98 11.74 221.63 11.63L221.63 11.63Q221.85 11.61 221.93 11.39Q222.01 11.17 222.21 10.05L222.21 10.05L222.70 10.08L222.24 12.41L215.48 12.41L215.46 11.87L215.85 11.87Q216.36 11.87 216.43 11.80L216.43 11.80Q216.51 11.72 216.51 11.33L216.51 11.33L216.51 4.09Q216.51 3.80 216.36 3.72L216.36 3.72Q216.21 3.64 215.77 3.64L215.77 3.64ZM230.45 12.41L230.43 11.87L230.60 11.87Q230.99 11.87 231.12 11.73L231.12 11.73Q231.25 11.57 231.58 10.83L231.58 10.83L232.49 8.82L233.06 7.53Q233.33 6.97 233.37 6.86L233.37 6.86Q233.44 6.70 233.49 6.60Q233.54 6.51 233.56 6.45L233.56 6.45L233.65 6.21L235.08 2.74L235.38 2.74Q236.23 4.98 238.42 10.25L238.42 10.25Q238.87 11.34 239.06 11.64L239.06 11.64Q239.20 11.87 239.63 11.87L239.63 11.87L239.85 11.87L239.83 12.41L236.64 12.41L236.65 11.87L237.07 11.87Q237.69 11.87 237.69 11.70L237.69 11.70Q237.69 11.63 237.55 11.27L237.55 11.27L236.51 8.72L233.26 8.72L232.16 11.18Q232.02 11.50 232.02 11.63L232.02 11.63Q232.02 11.79 232.11 11.83Q232.21 11.87 232.59 11.87L232.59 11.87L233.17 11.87L233.17 12.41L230.45 12.41ZM234.94 4.79L233.53 8.10L236.27 8.10L234.94 4.79ZM247.96 8.02L247.96 8.02Q247.96 6.86 248.43 5.83L248.43 5.83Q248.90 4.85 249.65 4.27L249.65 4.27Q250.39 3.69 251.29 3.37Q252.18 3.05 253.03 3.05L253.03 3.05Q253.89 3.05 254.56 3.16L254.56 3.16Q255.19 3.26 255.49 3.37L255.49 3.37Q255.79 3.48 255.83 3.48L255.83 3.48Q256.00 3.48 256.02 3.41L256.02 3.41Q256.05 3.33 256.05 3.09L256.05 3.09L256.05 2.97L256.58 2.97Q256.62 4.30 256.75 5.64L256.75 5.64L256.25 5.65Q256.22 5.40 256.20 5.26L256.20 5.26Q256.20 5.20 256.20 5.13Q256.19 5.07 256.18 5.02Q256.18 4.98 256.18 4.95L256.18 4.95Q256.15 4.84 256.15 4.74L256.15 4.74Q256.15 4.68 256.11 4.59L256.11 4.59Q256.11 4.57 256.08 4.55Q256.05 4.52 256.05 4.50L256.05 4.50Q256.02 4.44 255.95 4.41L255.95 4.41Q255.91 4.38 255.88 4.37Q255.86 4.36 255.83 4.35L255.83 4.35Q255.81 4.35 255.79 4.33Q255.77 4.31 255.73 4.29Q255.68 4.27 255.64 4.25L255.64 4.25Q255.42 4.16 255.39 4.14L255.39 4.14Q255.04 3.96 254.40 3.83L254.40 3.83Q253.73 3.71 253.07 3.71L253.07 3.71Q251.34 3.71 250.25 4.84L250.25 4.84Q249.14 5.99 249.15 7.62L249.15 7.62Q249.15 9.35 250.37 10.69L250.37 10.69Q251.57 12.02 253.39 12.02L253.39 12.02Q254.39 12.02 255.34 11.49L255.34 11.49Q256.29 10.94 256.31 10.58L256.31 10.58L256.35 9.41L256.85 9.41L256.76 11.45Q256.70 11.49 256.57 11.57L256.57 11.57Q256.51 11.60 256.05 11.85L256.05 11.85Q255.67 12.05 255.23 12.23L255.23 12.23Q254.86 12.39 254.21 12.51L254.21 12.51Q253.61 12.63 253.04 12.64L253.04 12.64Q250.66 12.64 249.30 11.39L249.30 11.39Q247.96 10.14 247.96 8.02ZM264.89 3.64L264.88 3.08L272.09 3.08Q272.10 4.14 272.16 5.28L272.16 5.28L271.61 5.30Q271.60 4.66 271.54 4.25L271.54 4.25Q271.50 3.89 271.45 3.80L271.45 3.80Q271.39 3.71 271.28 3.69L271.28 3.69Q271.18 3.68 270.59 3.68L270.59 3.68L268.21 3.68Q267.67 3.68 267.52 3.77L267.52 3.77Q267.40 3.86 267.40 4.33L267.40 4.33L267.40 6.28Q267.40 6.69 267.46 6.76L267.46 6.76Q267.52 6.84 267.87 6.84L267.87 6.84L269.98 6.84Q270.34 6.84 270.42 6.73L270.42 6.73Q270.50 6.63 270.51 6.14L270.51 6.14L270.51 5.61L271.02 5.63L271.02 8.97L270.51 8.97L270.51 8.24Q270.51 7.66 270.44 7.57L270.44 7.57Q270.35 7.46 270.01 7.46L270.01 7.46L267.91 7.46Q267.57 7.46 267.49 7.54Q267.40 7.63 267.40 7.89L267.40 7.89L267.40 11.20Q267.40 11.57 267.49 11.67Q267.57 11.77 267.85 11.77L267.85 11.77Q270.76 11.75 271.29 11.69L271.29 11.69Q271.81 11.63 271.89 11.38L271.89 11.38L271.90 11.36L271.91 11.35L272.13 10.17L272.61 10.25L272.26 12.41L265.16 12.41L265.16 11.87L265.53 11.87Q266.09 11.87 266.17 11.80L266.17 11.80Q266.27 11.72 266.27 11.33L266.27 11.33L266.27 4.24Q266.27 3.82 266.12 3.73L266.12 3.73Q265.95 3.64 265.29 3.64L265.29 3.64L264.89 3.64Z"></path></g></svg>