<svg data-v-423bf9ae="" xmlns="http://www.w3.org/2000/svg" viewBox="0 0 395 90" class="iconLeft"><!----><!----><!----><g data-v-423bf9ae="" id="95181d45-1040-41ee-95af-cc71757df9b2" fill="white" transform="matrix(5.769230980844901,0,0,5.769230980844901,92.42842468813322,14.999999046325684)"><path d="M6.82 4.20C6.82 2.67 5.84 1.86 4.33 1.86L1.02 1.86L1.30 2.66L1.30 10.26L2.09 10.26L2.09 6.52L4.33 6.52C5.84 6.52 6.82 5.71 6.82 4.20ZM6.02 4.20C6.02 5.24 5.39 5.82 4.33 5.82L2.09 5.82L2.09 2.56L4.33 2.56C5.39 2.56 6.02 3.16 6.02 4.20ZM9.45 1.40C9.45 1.04 9.16 0.73 8.79 0.73C8.43 0.73 8.12 1.04 8.12 1.40C8.12 1.76 8.43 2.06 8.79 2.06C9.16 2.06 9.45 1.76 9.45 1.40ZM10.22 10.26L10.22 9.95L9.17 9.60L9.17 3.72L8.40 3.72L8.40 10.26ZM16.65 10.26L14.17 6.94L16.56 3.72L14.15 3.72L14.15 4.03L15.19 4.38L13.71 6.44L11.75 3.72L10.85 3.72L13.26 6.94L10.77 10.26L11.68 10.26L13.71 7.46L15.75 10.26ZM23.42 7C23.42 4.79 22.26 3.58 20.48 3.58C18.70 3.58 17.50 4.79 17.50 7C17.50 9.28 18.84 10.40 20.94 10.40C21.53 10.40 22.37 10.26 22.90 10.08L22.90 9.38C22.37 9.56 21.53 9.70 20.94 9.70C19.39 9.70 18.38 8.96 18.30 7.22L23.42 7.22C23.42 7.15 23.42 7.07 23.42 7ZM22.65 6.55L18.31 6.55C18.45 5.07 19.28 4.28 20.48 4.28C21.62 4.28 22.51 5.07 22.65 6.55ZM27.20 10.26L27.20 9.95L26.15 9.60L26.15 0L25.38 0L25.38 10.26ZM34.38 4.20C34.38 2.67 33.40 1.86 31.89 1.86L28.59 1.86L28.87 2.66L28.87 10.26L29.65 10.26L29.65 6.52L31.89 6.52C33.40 6.52 34.38 5.71 34.38 4.20ZM33.59 4.20C33.59 5.24 32.96 5.82 31.89 5.82L29.65 5.82L29.65 2.56L31.89 2.56C32.96 2.56 33.59 3.16 33.59 4.20ZM41.29 7C41.29 4.79 40.08 3.58 38.30 3.58C36.53 3.58 35.32 4.79 35.32 7C35.32 9.20 36.53 10.40 38.30 10.40C40.08 10.40 41.29 9.20 41.29 7ZM40.50 7C40.50 8.76 39.62 9.70 38.30 9.70C36.99 9.70 36.11 8.76 36.11 7C36.11 5.22 36.99 4.28 38.30 4.28C39.62 4.28 40.50 5.22 40.50 7ZM47.36 5.46L47.36 3.89C46.77 3.71 46.09 3.58 45.58 3.58C44.87 3.58 43.90 3.78 43.19 3.98L42.99 4.03L43.25 4.80L43.25 10.26L44.02 10.26L44.02 4.51C44.53 4.37 45.07 4.28 45.58 4.28C45.91 4.28 46.31 4.34 46.70 4.42L47.05 5.46ZM52.37 10.29L52.37 9.59C52.18 9.66 51.87 9.70 51.67 9.70C50.55 9.70 50.18 9.24 50.18 8.26L50.18 4.41L52.37 4.41L52.37 3.72L50.18 3.72L50.18 1.82L49.41 1.93L49.41 3.72L48.01 3.72L48.01 4.41L49.41 4.41L49.41 8.26C49.41 9.63 50.13 10.40 51.67 10.40C51.87 10.40 52.18 10.36 52.37 10.29Z"></path></g><!----><g data-v-423bf9ae="" id="5a7e50a1-7603-42da-8cea-77ccc216c67f" transform="matrix(1.4577732850682872,0,0,1.4577732850682872,-6.509474437073209,-1.5177416046211647)" stroke="none" fill="#2081e2"><path d="M14.288 22.212v19.871l17.209 9.933V32.148zM31.997 31.283l17.214-9.937-17.178-9.921c-.012.001-.022.007-.034.007-.013 0-.022-.006-.035-.007l-17.177 9.92 17.21 9.938z"></path><path d="M32.499 10.539L50.46 20.913c.007.004.009.012.016.016a.494.494 0 01.169.168.48.48 0 01.061.231c0 .007.005.012.005.019v20.737l8.15 4.703V16.356L32.499 1.131v9.408z"></path><path d="M49.71 22.214l-17.213 9.934v19.871l17.213-9.936z"></path><path d="M58.359 47.652l-8.149-4.703-17.961 10.366c-.008.005-.018.003-.026.007a.489.489 0 01-.218.059l-.006.002h-.002a.473.473 0 01-.229-.063c-.007-.003-.014-.001-.02-.005l-17.96-10.366-8.148 4.703 26.362 15.217 26.357-15.217zM13.288 42.084V21.346c0-.008.005-.014.005-.021a.484.484 0 01.061-.229.497.497 0 01.168-.167c.007-.005.01-.013.017-.017L31.5 10.539V1.135L5.14 16.354v30.432l8.148-4.702z"></path></g><!----></svg>